<svg width="current" height="current" viewBox="0 0 300 45" fill="none" xmlns="http://www.w3.org/2000/svg">
<rect width="300" height="45" rx="22.5" fill="#FEE500"/>
<g clip-path="url(#clip0_87_1042)">
<path opacity="0.902" fill-rule="evenodd" clip-rule="evenodd" d="M29 14.4441C24.29 14.4441 20 18.2301 20 21.4331C20 23.8331 21.558 25.9501 23.931 27.2081L22.933 30.8741C22.844 31.1991 23.213 31.4571 23.496 31.2701L27.873 28.3651C28.242 28.4011 28.618 28.4221 29 28.4221C33.97 28.4221 38 25.2931 38 21.4331C38 18.2301 33.97 14.4441 29 14.4441Z" fill="black"/>
</g>
<path d="M112.076 17.752H113.21C113.21 21.406 111.978 24.766 107.442 27.02L106.812 26.124C110.816 24.15 112.076 21.322 112.076 17.878V17.752ZM107.498 17.752H112.762V18.69H107.498V17.752ZM111.894 20.888V21.784L107.05 22.26L106.868 21.224L111.894 20.888ZM115.254 16.422H116.43V29.092H115.254V16.422ZM116.108 21.56H118.446V22.526H116.108V21.56ZM124.955 17.752H126.089C126.089 21.406 124.857 24.766 120.321 27.02L119.691 26.124C123.695 24.15 124.955 21.322 124.955 17.878V17.752ZM120.377 17.752H125.641V18.69H120.377V17.752ZM124.773 20.888V21.784L119.929 22.26L119.747 21.224L124.773 20.888ZM128.133 16.422H129.309V29.092H128.133V16.422ZM128.987 21.56H131.325V22.526H128.987V21.56ZM137.582 23.59H138.744V26.74H137.582V23.59ZM138.17 17.262C140.844 17.262 142.762 18.564 142.762 20.58C142.762 22.596 140.844 23.898 138.17 23.898C135.496 23.898 133.564 22.596 133.564 20.58C133.564 18.564 135.496 17.262 138.17 17.262ZM138.17 18.186C136.154 18.186 134.684 19.138 134.684 20.58C134.684 22.022 136.154 22.974 138.17 22.974C140.172 22.974 141.642 22.022 141.642 20.58C141.642 19.138 140.172 18.186 138.17 18.186ZM132.458 26.516H143.924V27.482H132.458V26.516ZM145.323 23.254H156.761V24.206H145.323V23.254ZM150.461 21.546H151.609V23.576H150.461V21.546ZM146.597 25.312H155.291V29.092H154.129V26.264H146.597V25.312ZM146.835 21.028H155.417V21.938H146.835V21.028ZM146.835 16.772H155.361V17.682H147.983V21.448H146.835V16.772ZM147.647 18.872H155.025V19.754H147.647V18.872ZM163.928 17.234C166.56 17.234 168.52 18.634 168.52 20.734C168.52 22.848 166.56 24.234 163.928 24.234C161.296 24.234 159.322 22.848 159.322 20.734C159.322 18.634 161.296 17.234 163.928 17.234ZM163.928 18.186C161.926 18.186 160.442 19.208 160.442 20.734C160.442 22.246 161.926 23.282 163.928 23.282C165.93 23.282 167.414 22.246 167.414 20.734C167.414 19.208 165.93 18.186 163.928 18.186ZM158.216 26.446H169.682V27.426H158.216V26.446ZM171.095 26.572H182.561V27.538H171.095V26.572ZM176.219 23.856H177.381V26.978H176.219V23.856ZM172.481 17.374H181.147V21.21H173.671V23.744H172.523V20.272H179.999V18.312H172.481V17.374ZM172.523 23.254H181.441V24.206H172.523V23.254ZM187.46 26.572H198.926V27.538H187.46V26.572ZM192.584 23.856H193.746V26.978H192.584V23.856ZM188.846 17.374H197.512V21.21H190.036V23.744H188.888V20.272H196.364V18.312H188.846V17.374ZM188.888 23.254H197.806V24.206H188.888V23.254ZM201.571 17.78H209.719V18.718H201.571V17.78ZM200.339 26.278H211.777V27.244H200.339V26.278ZM209.103 17.78H210.237V19.04C210.237 20.664 210.237 22.47 209.761 25.2L208.599 25.088C209.103 22.498 209.103 20.608 209.103 19.04V17.78ZM222.416 16.45H223.592V25.69H222.416V16.45ZM215.458 27.86H223.97V28.812H215.458V27.86ZM215.458 24.738H216.606V28.182H215.458V24.738ZM216.802 17.318C218.692 17.318 220.092 18.606 220.092 20.44C220.092 22.26 218.692 23.562 216.802 23.562C214.912 23.562 213.498 22.26 213.498 20.44C213.498 18.606 214.912 17.318 216.802 17.318ZM216.802 18.326C215.57 18.326 214.632 19.194 214.632 20.44C214.632 21.672 215.57 22.54 216.802 22.54C218.034 22.54 218.972 21.672 218.972 20.44C218.972 19.194 218.034 18.326 216.802 18.326Z" fill="black"/>
<defs>
<clipPath id="clip0_87_1042">
<rect width="18" height="18" fill="white" transform="translate(20 13.5)"/>
</clipPath>
</defs>
</svg>
