<svg width="current" height="current" viewBox="0 0 128 60" fill="none" xmlns="http://www.w3.org/2000/svg">
<path d="M32.654 43.864C30.798 43.928 29.902 44.824 29.902 46.552V53.528C29.902 54.872 29.198 55.64 27.854 55.64H22.734C21.39 55.64 20.622 54.872 20.622 53.528V47C20.622 45.656 21.39 44.44 22.542 43.928C14.606 43.864 7.246 43.544 2.254 42.84C0.782 42.648 0.142 42.008 0.142 40.792V36.056C0.142 34.712 0.91 33.944 2.254 34.136C7.758 34.84 16.206 35.224 25.166 35.224C35.15 35.224 44.238 34.776 48.206 34.136C49.55 33.88 50.382 34.712 50.382 36.056V40.792C50.382 41.944 49.742 42.584 48.27 42.84C45.198 43.352 39.182 43.736 32.654 43.864ZM42.958 12.568C44.366 12.696 44.878 13.272 44.878 14.552V18.136C44.878 19.416 44.174 20.12 42.958 20.056C37.006 19.736 31.438 19.352 26.254 19.352C15.566 19.352 13.774 19.672 13.774 21.464C13.774 23.32 14.862 23.576 24.59 23.576C29.326 23.576 36.878 23.128 43.47 22.424C44.686 22.296 45.262 22.936 45.39 24.408L45.71 27.928C45.838 29.144 45.262 29.784 43.79 29.912C33.678 30.808 29.006 31.064 25.55 31.064C8.718 31.064 4.494 29.144 4.494 21.464C4.494 13.848 9.038 11.864 26.446 11.864C32.974 11.864 37.646 12.056 42.958 12.568ZM42.766 2.008C44.046 2.008 44.75 2.712 44.75 3.992V7.512C44.75 8.792 44.046 9.496 42.766 9.496H6.99C5.71 9.496 5.006 8.792 5.006 7.512V3.992C5.006 2.712 5.71 2.008 6.99 2.008H42.766ZM56.6315 2.008H80.3115C81.6555 2.008 82.4235 2.776 82.4235 4.12V8.536C82.4235 9.88 81.6555 10.648 80.3115 10.648H78.9035L78.7115 22.744C79.5435 22.68 80.3115 22.616 81.0155 22.488C82.3595 22.296 83.1275 23.128 83.1275 24.472V28.888C83.1275 30.232 82.4235 30.872 81.0795 31.128C78.7115 31.576 73.2075 31.896 68.4715 31.896C63.7355 31.896 59.0635 31.576 55.9275 31.128C54.5835 30.936 53.8795 30.232 53.8795 28.888V24.472C53.8795 23.128 54.6475 22.36 55.9915 22.488C56.7595 22.552 57.5915 22.68 58.3595 22.744L57.7835 10.648H56.6315C55.2875 10.648 54.5195 9.88 54.5195 8.536V4.12C54.5195 2.776 55.2875 2.008 56.6315 2.008ZM87.3515 19.736C86.9035 20.312 86.1355 20.696 85.2395 20.696H83.3835C82.1035 20.696 81.5275 20.12 81.5275 18.84V13.912C81.5275 12.632 82.1035 12.056 83.3835 12.056H85.3675C86.6475 12.056 87.3515 11.416 87.3515 9.56V3.16C87.3515 1.816 87.9915 1.176 89.3355 1.176H94.0075C95.3515 1.176 95.9915 1.816 95.9915 3.16V29.656C95.9915 31 95.3515 31.64 94.0075 31.64H89.3355C87.9915 31.64 87.3515 31 87.3515 29.656V19.736ZM99.1915 2.52C99.1915 1.176 99.8315 0.535999 101.176 0.535999H105.848C107.192 0.535999 107.832 1.176 107.832 2.52V33.496C107.832 34.84 107.192 35.48 105.848 35.48H101.176C99.8315 35.48 99.1915 34.84 99.1915 33.496V2.52ZM85.7515 48.152C83.1275 53.4 75.8315 58.264 66.5515 58.264C65.0795 58.264 63.4155 58.264 63.4155 56.28V51.48C63.4155 50.264 64.1195 49.624 65.5275 49.624C73.8475 49.624 81.1435 44.888 81.1435 39.064V37.976C81.1435 36.632 81.9115 35.864 83.2555 35.864H88.3115C89.6555 35.864 90.4235 36.632 90.4235 37.976V39.064C90.4235 44.888 98.2315 49.624 106.552 49.624C107.96 49.624 108.664 50.264 108.664 51.48V56.28C108.664 58.264 107 58.264 105.528 58.264C96.2475 58.264 88.4395 53.4 85.7515 48.152ZM66.8075 23.192H70.3275L70.5195 10.648H66.1675L66.8075 23.192ZM116.075 54.36C116.075 51.032 118.251 48.856 121.515 48.856C124.843 48.856 127.019 51.032 127.019 54.36C127.019 57.624 124.843 59.8 121.515 59.8C118.251 59.8 116.075 57.624 116.075 54.36Z" fill="white"/>
</svg>
