<?xml version="1.0" encoding="utf-8"?>
<!-- Generator: Adobe Illustrator 26.0.3, SVG Export Plug-In . SVG Version: 6.00 Build 0)  -->
<svg version="1.1" id="레이어_1" xmlns="http://www.w3.org/2000/svg" xmlns:xlink="http://www.w3.org/1999/xlink" x="0px"
	 y="0px" viewBox="0 0 799.66 533.5" style="enable-background:new 0 0 799.66 533.5;" xml:space="preserve" width="current" height="current">
<style type="text/css">
	.st0{fill:#FFA62F;stroke:#FFA62F;stroke-miterlimit:10;}
	.st1{fill:#FFA62F;}
</style>
<g>
	<g>
		<path class="st0" d="M356.5,203l-2.5-27.5c-1-11.33-6-16.5-15-15.5c-13,1.34-26.25,2.59-39.75,3.75
			c-13.5,1.17-26.67,2.09-39.5,2.75c-12.84,0.67-25.09,1.25-36.75,1.75c-11.67,0.5-22.17,0.75-31.5,0.75c-19,0-34.09-0.16-45.25-0.5
			c-11.17-0.33-19.67-1.08-25.5-2.25c-5.84-1.16-9.59-2.83-11.25-5c-1.67-2.16-2.5-5.08-2.5-8.75c0-3.66,1.16-6.5,3.5-8.5
			c2.33-2,7-3.66,14-5c7-1.33,16.83-2.16,29.5-2.5c12.66-0.33,29.5-0.5,50.5-0.5c20.33,0,41.33,0.59,63,1.75
			c21.66,1.17,44.16,2.42,67.5,3.75c10,0.67,15-4.33,15-15v-28c0-5-1.09-8.66-3.25-11c-2.17-2.33-6.09-3.83-11.75-4.5
			c-10.34-1-20.5-1.83-30.5-2.5c-10-0.66-20.17-1.25-30.5-1.75c-10.34-0.5-21.09-0.83-32.25-1c-11.17-0.16-23.09-0.25-35.75-0.25
			c-34,0-62.09,1.09-84.25,3.25c-22.17,2.17-39.67,6.09-52.5,11.75c-12.84,5.67-21.84,13.34-27,23c-4.32,8.08-6.83,18.03-7.53,29.83
			c0.15,0.68,0.3,1.36,0.46,2.04c0.39,1.61,0.07,2.98-0.66,4.01c0,0.37-0.01,0.74-0.01,1.11c0,15,2.41,27.34,7.25,37
			c4.83,9.67,13.41,17.34,25.75,23c12.33,5.67,29.08,9.59,50.25,11.75c21.16,2.17,48.25,3.25,81.25,3.25c6.66,0,14.16-0.16,22.5-0.5
			c8.33-0.33,18.08-0.83,29.25-1.5c11.16-0.66,24.16-1.58,39-2.75c14.83-1.16,32.08-2.58,51.75-4.25
			C352.5,217.5,357.5,212.34,356.5,203z"/>
		<path class="st0" d="M397.88,258.89c-0.2,0.03-0.4,0.06-0.6,0.06h-1.49c-0.33,0-0.66-0.04-0.97-0.1
			c-30.54-0.41-79.86-1.84-91.32-1.35c-15.67,0.67-32.59,1.25-50.75,1.75c-18.17,0.5-37.09,0.75-56.75,0.75
			c-35.34,0-68.59-0.75-99.75-2.25c-31.17-1.5-57.59-3.58-79.25-6.25c-5.34-0.66-9.42,0.34-12.25,3c-2.84,2.67-4.25,6.67-4.25,12v37
			c0,9.34,5.5,14.67,16.5,16c19.66,2.67,43.16,4.67,70.5,6c27.33,1.34,56.66,2.17,88,2.5c-4.67,2-8.34,5.17-11,9.5
			c-2.67,4.34-4,9.17-4,14.5v51c0,11,5.5,16.5,16.5,16.5h40c10.66,0,16-5.5,16-16.5v-54.5c0-13.66,7.16-20.66,21.5-21
			c25.66-0.66,49.41-1.66,71.25-3c21.83-1.33,38.75-3,50.75-5c11-2,16.5-7.33,16.5-16v-37c18.13-2.1,29.48-3.4,36.35-4.24
			c-4.7-2.33-8.68-3.72-11.29-3.51C415.02,258.99,407.59,259,397.88,258.89z"/>
		<path class="st0" d="M54,59h279.5c10.33,0,15.5-5.16,15.5-15.5V16c0-10.33-5.17-15.5-15.5-15.5H54C43.66,0.5,38.5,5.67,38.5,16
			v27.5C38.5,53.84,43.66,59,54,59z"/>
		<path class="st0" d="M434.68,260.04c0.75,0.32,1.62,0.7,2.6,1.14C440.73,260.58,437.56,260.54,434.68,260.04z"/>
		<path class="st0" d="M437.28,261.18c-1.4,0.24-3.89,0.58-7.93,1.07c17.73,8.77,45.92,31.02,51.9,32.46
			C530.85,306.69,458.77,270.78,437.28,261.18z"/>
		<path class="st0" d="M431.61,259c0.53,0.5,1.77,0.82,3.07,1.04C432.44,259.09,431.27,258.67,431.61,259z"/>
		<path class="st0" d="M740.66,355h36.5c8.56,0,15.5-6.94,15.5-15.5v-242c0-8.56-6.94-15.5-15.5-15.5h-36.5
			c-8.56,0-15.5,6.94-15.5,15.5v242C725.16,348.06,732.1,355,740.66,355z"/>
		<path class="st0" d="M587.16,186.5V225c0,8.01,6.49,14.5,14.5,14.5h14.5c7,0,12.5-2.5,16.5-7.5v77.5c0,8.56,6.94,15.5,15.5,15.5
			h36.5c8.56,0,15.5-6.94,15.5-15.5v-207c0-8.56-6.94-15.5-15.5-15.5h-36.5c-8.56,0-15.5,6.94-15.5,15.5v50
			c0,7.34-1.34,12.42-4,15.25c-2.67,2.84-6.5,4.25-11.5,4.25h-15.5C593.65,172,587.16,178.49,587.16,186.5z"/>
		<path class="st0" d="M409.77,252.7c-0.56-0.07,2.74-0.67,2.12-0.73C411.81,252.29,409.92,252.4,409.77,252.7
			c7.23,0.69-3.65,2.86-4.14,3.32c-4.38,1.77-23.48,7.49-9.84,2.94c0.18,0.48,3.81,0.57,3.98,1.11c1.57-0.24,3.01-0.48,4.31-0.72
			L409.77,252.7z"/>
		<path class="st0" d="M513.66,326.5c9.66-0.33,18.91-0.75,27.75-1.25c8.83-0.5,16.91-1.08,24.25-1.75c7.33-0.66,13.33-1.5,18-2.5
			c10.66-2,16-7.83,16-17.5V269c0-5.33-1.42-9.41-4.25-12.25c-2.84-2.83-6.92-3.91-12.25-3.25c-2.67,0.67-5.5,1.09-8.5,1.25
			c-3,0.17-6.17,0.42-9.5,0.75l1.5-94.5h11c9.11,0,16.5-7.39,16.5-16.5V110c0-9.11-7.39-16.5-16.5-16.5h-185
			c-9.11,0-16.5,7.39-16.5,16.5v34.5c0,9.11,7.39,16.5,16.5,16.5h9l2.31,94.15c10.32,1.21,8.25,2.69,0.1,4.2l0.67,27.44
			c0.19,3.9-1.78-16.49-4.98-26.72c-27.01,4.12-91.71,8.16-66.66,7.32c4.5-0.15,1.86-0.43,1.14-0.49c1.09,0.08,8.29,0.6,36.91,2.1
			v34.5c0,10-81.56,19.84-70.89,21.5c12.33,1.67,113.97-0.91,131.14,0.25c17.16,1.17,35.08,1.75,53.75,1.75
			C494.48,327,503.98,326.84,513.66,326.5z M467.16,161h34l-1.5,98h-27.5L467.16,161z"/>
		<path class="st0" d="M782.66,465.5c-16.34,0-32.09-2.17-47.25-6.5c-15.17-4.34-28.59-10.25-40.25-17.75
			c-11.67-7.5-21-16.25-28-26.25s-10.5-20.66-10.5-32v-8.5c0-9.11-7.39-16.5-16.5-16.5h-39.5c-9.11,0-16.5,7.39-16.5,16.5v8.5
			c0,11.34-3.34,22-10,32c-6.67,10-15.59,18.75-26.75,26.25c-11.17,7.5-24.09,13.41-38.75,17.75c-14.67,4.33-30.17,6.5-46.5,6.5
			c-11,0-16.5,4.83-16.5,14.5v37.5c0,4,0.75,7,2.25,9s3.41,3.5,5.75,4.5c2.33,1,4.91,1.58,7.75,1.75c2.83,0.16,5.75,0.25,8.75,0.25
			c18,0,35-2.17,51-6.5c16-4.34,30.5-10.17,43.5-17.5c13-7.34,24.25-15.75,33.75-25.25s16.75-19.42,21.75-29.75
			c5.33,10.33,12.91,20.25,22.75,29.75c9.83,9.5,21.5,17.91,35,25.25c13.5,7.33,28.5,13.16,45,17.5c16.5,4.33,33.75,6.5,51.75,6.5
			c3,0,5.91-0.09,8.75-0.25c2.83-0.17,5.41-0.75,7.75-1.75c2.33-1,4.25-2.5,5.75-4.5s2.25-5,2.25-9V480
			C799.16,470.33,793.66,465.5,782.66,465.5z"/>
	</g>
	<rect x="38.5" y="40.22" class="st0" width="62.17" height="106.56"/>
	<g>
		<path class="st1" d="M381.86,275.4c3.67-0.09,6.91-2.26,10.29-3.7c3.38-1.44,7.76-1.99,10.34,0.62s-0.05,8.51-3.41,7.03"/>
		<g>
			<path class="st1" d="M381.86,276.9c3.2-0.13,6.01-1.51,8.84-2.88c2.38-1.15,4.92-2.25,7.63-1.99c1.93,0.18,3.91,1.3,3.67,3.47
				c-0.08,0.72-0.37,1.48-0.86,2.03c-0.54,0.6-0.97,0.67-1.68,0.39c-0.76-0.3-1.64,0.33-1.85,1.05c-0.24,0.85,0.3,1.55,1.05,1.85
				c4.42,1.77,7.37-4.27,5.97-7.81c-0.91-2.31-3.32-3.58-5.68-3.89c-2.65-0.35-5.3,0.33-7.73,1.38c-3.03,1.32-5.98,3.28-9.37,3.42
				C379.93,273.98,379.92,276.98,381.86,276.9L381.86,276.9z"/>
		</g>
	</g>
	<g>
		<path class="st1" d="M413.7,268.92c-6.39-0.83-12.99,0.1-18.9,2.68c2.33-0.35,4.66-0.7,6.99-1.06"/>
		<g>
			<path class="st1" d="M413.7,267.42c-6.7-0.84-13.46,0.22-19.65,2.88c-0.68,0.29-0.88,1.26-0.61,1.87
				c0.32,0.74,1.01,0.98,1.77,0.87c2.33-0.35,4.66-0.7,6.99-1.06c0.8-0.12,1.24-1.13,1.05-1.85c-0.24-0.86-1.04-1.17-1.85-1.05
				c-2.33,0.35-4.66,0.7-6.99,1.06c0.39,0.91,0.77,1.83,1.16,2.74c5.7-2.45,12-3.25,18.14-2.47c0.81,0.1,1.5-0.76,1.5-1.5
				C415.2,268.03,414.5,267.52,413.7,267.42L413.7,267.42z"/>
		</g>
	</g>
	<g>
		<path class="st1" d="M391.2,278.34c11.07-2.64,22.14-5.27,33.22-7.91c-22.14-2.96-44.74-2.5-66.74,1.36
			c17.53-0.52,35.02-2.27,52.31-5.25c-8.71,1.65-17.41,3.29-26.12,4.94c7.96-0.13,15.92,0.43,23.78,1.66
			c-6.35,2.57-13.06,4.27-19.87,5.03c2.53,1.61,5.93,1.77,8.6,0.4c-3.98-1.68-8.25-2.65-12.57-2.88"/>
		<g>
			<path class="st1" d="M391.6,279.78c11.07-2.64,22.14-5.27,33.22-7.91c1.79-0.43,1.15-2.74-0.4-2.95
				c-17.34-2.3-34.93-2.54-52.32-0.67c-4.96,0.53-9.91,1.23-14.82,2.09c-1.67,0.29-1.27,3,0.4,2.95c17.67-0.54,35.28-2.32,52.71-5.3
				c-0.27-0.96-0.53-1.93-0.8-2.89c-8.71,1.65-17.41,3.29-26.12,4.94c-1.68,0.32-1.27,2.97,0.4,2.95
				c7.83-0.11,15.65,0.41,23.38,1.61c0-0.96,0-1.93,0-2.89c-6.24,2.5-12.79,4.21-19.47,4.98c-1.41,0.16-2.13,1.97-0.76,2.8
				c3.12,1.88,6.86,1.97,10.11,0.4c1.3-0.63,0.7-2.3-0.36-2.74c-4.14-1.71-8.5-2.67-12.96-2.93c-1.93-0.11-1.92,2.89,0,3
				c4.2,0.24,8.28,1.21,12.17,2.82c-0.12-0.91-0.24-1.83-0.36-2.74c-2.29,1.11-4.93,0.9-7.08-0.4c-0.25,0.93-0.5,1.86-0.76,2.8
				c6.96-0.81,13.76-2.48,20.27-5.09c1.19-0.48,1.64-2.64,0-2.89c-8-1.24-16.08-1.83-24.18-1.72c0.13,0.98,0.27,1.96,0.4,2.95
				c8.71-1.65,17.41-3.29,26.12-4.94c1.9-0.36,1.09-3.22-0.8-2.89c-17.16,2.94-34.51,4.67-51.91,5.19c0.13,0.98,0.27,1.96,0.4,2.95
				c17.01-2.97,34.37-3.89,51.61-2.77c4.93,0.32,9.84,0.81,14.74,1.46c-0.13-0.98-0.27-1.96-0.4-2.95
				c-11.07,2.64-22.14,5.27-33.22,7.91C388.93,277.34,389.72,280.23,391.6,279.78L391.6,279.78z"/>
		</g>
	</g>
	<g>
		<path class="st1" d="M407.69,267.2c-2.36,0.48-4.72,0.96-7.08,1.43c7.63,1.84,16,0.35,22.54-4c-3.49-2.65-8.41-3.28-12.45-1.59
			c0.41-1.56,0.83-3.11,1.24-4.67"/>
		<g>
			<path class="st1" d="M407.29,265.75c-2.36,0.48-4.72,0.96-7.08,1.43c-1.46,0.29-1.41,2.56,0,2.89c8.08,1.89,16.75,0.41,23.7-4.15
				c1.01-0.66,0.92-1.91,0-2.59c-3.86-2.85-9.15-3.53-13.61-1.74c0.62,0.62,1.23,1.23,1.85,1.85c0.41-1.56,0.83-3.11,1.24-4.67
				c0.5-1.87-2.4-2.66-2.89-0.8c-0.41,1.56-0.83,3.11-1.24,4.67c-0.27,1.01,0.74,2.29,1.85,1.85c3.81-1.53,7.99-1,11.29,1.44
				c0-0.86,0-1.73,0-2.59c-6.28,4.12-14.06,5.56-21.38,3.85c0,0.96,0,1.93,0,2.89c2.36-0.48,4.72-0.96,7.08-1.43
				C409.98,268.26,409.18,265.37,407.29,265.75L407.29,265.75z"/>
		</g>
	</g>
	<g>
		<path class="st1" d="M418.41,246.5c1.19,9.8-3.99,20.08-12.58,24.97c-1.62-6.41-0.13-13.54,3.93-18.76"/>
		<g>
			<path class="st1" d="M416.91,246.5c1.06,9.39-3.63,18.92-11.83,23.67c0.73,0.3,1.47,0.6,2.2,0.9c-1.49-6.14-0.04-12.6,3.78-17.61
				c1.17-1.53-1.43-3.03-2.59-1.51c-4.29,5.63-5.75,13.06-4.08,19.92c0.23,0.95,1.39,1.37,2.2,0.9
				c9.03-5.23,14.49-15.86,13.32-26.26C419.7,244.6,416.69,244.58,416.91,246.5L416.91,246.5z"/>
		</g>
	</g>
	<g>
		<path class="st1" d="M407.73,247.99c0,5.27,0,10.53,0,15.8c0.01-1.37,0.02-2.75,0.03-4.12c-1.09,2.42-1.62,5.08-1.53,7.73"/>
		<g>
			<path class="st1" d="M406.23,247.99c0,5.27,0,10.53,0,15.8c0,1.93,2.98,1.93,3,0c0.01-1.37,0.02-2.75,0.03-4.12
				c0.01-1.39-2.17-2.17-2.8-0.76c-1.18,2.7-1.8,5.54-1.73,8.49c0.05,1.93,3.05,1.93,3,0c-0.06-2.4,0.36-4.77,1.32-6.97
				c-0.93-0.25-1.86-0.5-2.8-0.76c-0.01,1.37-0.02,2.75-0.03,4.12c1,0,2,0,3,0c0-5.27,0-10.53,0-15.8
				C409.23,246.05,406.23,246.05,406.23,247.99L406.23,247.99z"/>
		</g>
	</g>
	<g>
		<path class="st1" d="M409.09,256.57c-1.47,0.55-2.95,1.1-4.42,1.65"/>
		<g>
			<path class="st1" d="M408.69,255.13c-1.47,0.55-2.95,1.1-4.42,1.65c-0.37,0.14-0.69,0.33-0.9,0.69c-0.19,0.32-0.27,0.8-0.15,1.16
				c0.23,0.72,1.06,1.34,1.85,1.05c1.47-0.55,2.95-1.1,4.42-1.65c0.37-0.14,0.69-0.33,0.9-0.69c0.19-0.32,0.27-0.8,0.15-1.16
				C410.3,255.46,409.48,254.83,408.69,255.13L408.69,255.13z"/>
		</g>
	</g>
	<g>
		<path class="st1" d="M40.37,11.82c5.52-0.56,11.14,1.8,16.59,0.26"/>
		<g>
			<path class="st1" d="M40.37,13.32c5.7-0.53,11.33,1.73,16.99,0.21c1.86-0.5,1.07-3.4-0.8-2.89c-5.33,1.43-10.79-0.81-16.19-0.31
				c-0.81,0.07-1.5,0.64-1.5,1.5C38.87,12.57,39.55,13.39,40.37,13.32L40.37,13.32z"/>
		</g>
	</g>
	<g>
		<path class="st1" d="M35.69,22.47c3.15-5.04,7.1-9.54,10.22-14.59"/>
		<g>
			<path class="st1" d="M36.98,23.23c3.16-5.03,7.08-9.54,10.22-14.59c1.02-1.64-1.57-3.15-2.59-1.51
				c-3.14,5.05-7.06,9.55-10.22,14.59C33.36,23.35,35.96,24.86,36.98,23.23L36.98,23.23z"/>
		</g>
	</g>
	<g>
		<path class="st1" d="M35.73,24.05c1.31-1.43,3.07-2.35,5.01-2.54c1.07,8.87,0.94,17.88-0.41,26.71c3.82-12.1-9.41-28.25,1.88-38.3
			c-4.27,9.62-5.82,20.44-4.36,30.86c-2.16-9.57,1.1-20.16,8.26-26.87c-12.32,5.88-11.05,21.92-9.47,33.21
			c-3.14-13.6,0.37-28.5,9.26-39.26c-1.83,0.75-3.55,1.77-5.1,3.01"/>
		<g>
			<path class="st1" d="M36.79,25.12c1.07-1.12,2.39-1.91,3.95-2.1c-0.5-0.5-1-1-1.5-1.5c1.03,8.74,0.95,17.61-0.35,26.31
				c-0.28,1.86,2.32,2.69,2.89,0.8c1.97-6.5-0.26-13.36-1.65-19.74c-0.69-3.17-1.3-6.43-1.01-9.69c0.28-3.24,1.77-6.03,4.16-8.2
				c-0.79-0.61-1.57-1.21-2.36-1.82c-4.43,10.09-6,21.1-4.51,32.02c0.96-0.27,1.93-0.53,2.89-0.8c-1.99-9.15,1.1-18.98,7.88-25.41
				c1.29-1.23-0.35-3.08-1.82-2.36C32.37,18.97,33.52,35.49,35.2,47.54c0.96-0.27,1.93-0.53,2.89-0.8
				c-2.96-13.11,0.36-27.39,8.87-37.8c0.82-1,0.08-3.16-1.46-2.51c-2.1,0.88-3.97,1.99-5.76,3.39c-1.52,1.19,0.62,3.3,2.12,2.12
				c1.35-1.06,2.86-1.96,4.44-2.62c-0.49-0.84-0.97-1.67-1.46-2.51c-9.23,11.28-12.86,26.48-9.64,40.72
				c0.44,1.93,3.15,1.06,2.89-0.8c-1.49-10.72-2.82-25.85,8.78-31.52c-0.61-0.79-1.21-1.57-1.82-2.36
				c-7.57,7.18-10.87,18.15-8.65,28.33c0.42,1.93,3.14,1.06,2.89-0.8c-1.36-10.03,0.14-20.44,4.21-29.71
				c0.66-1.51-1.03-3.03-2.36-1.82c-2.55,2.31-4.29,5.33-4.84,8.74c-0.55,3.38-0.13,6.79,0.52,10.13
				c1.25,6.45,4.06,13.52,2.06,20.09c0.96,0.27,1.93,0.53,2.89,0.8c1.35-8.99,1.53-18.08,0.46-27.11c-0.09-0.72-0.62-1.61-1.5-1.5
				c-2.37,0.3-4.41,1.24-6.07,2.98C33.34,24.39,35.46,26.51,36.79,25.12L36.79,25.12z"/>
		</g>
	</g>
	<g>
		<path class="st1" d="M31.26,67.35c-0.15-6.48-0.22-12.97-0.2-19.46"/>
		<g>
			<path class="st1" d="M32.76,67.35c-0.15-6.48-0.22-12.97-0.2-19.46c0.01-1.93-2.99-1.93-3,0c-0.02,6.49,0.05,12.97,0.2,19.46
				C29.8,69.27,32.8,69.28,32.76,67.35L32.76,67.35z"/>
		</g>
	</g>
	<g>
		<path class="st1" d="M35.53,140.8c-1.87-22.36-3.43-44.76-4.11-67.2"/>
		<g>
			<path class="st1" d="M37.03,140.8c-1.45-17.43-2.72-34.88-3.53-52.36c-0.23-4.95-0.42-9.89-0.57-14.84c-0.06-1.93-3.06-1.93-3,0
				c0.54,17.49,1.6,34.95,2.92,52.39c0.38,4.94,0.77,9.87,1.18,14.81C34.19,142.71,37.19,142.72,37.03,140.8L37.03,140.8z"/>
		</g>
	</g>
	<g>
		<path class="st1" d="M45.58,21c5.1,32.39-5.33,64.3-7.15,96.48c-0.53,9.3-0.34,18.67,1.15,27.87c-2.86-19.85,0.39-39.98,4.56-59.4
			c4.82-23.01,14.82-46.01,35.93-58.87c-2.73,1.05-5.79,1.96-8.31,3.48c2.85-0.61,5.72-2.18,8.31-3.48
			c-42.11,23.86-28.11,78.86-27.11,118.86c0,2-1,3-0.54,4.69c-0.49-0.72,0.36-9.63,0,0c-0.49-0.72-6.52-9.93-4.16-10
			c2.79-0.08,4.08,8.39,4.16,10c-8.39-19.15-8.8-40.49-7.99-61.04c2.53-18.65-1.47-37.65,4.53-55.65c3-8,11-14,19.34-15.91
			c-0.37,0.93-8.78,1.67,0,0c-0.37,0.93-3.01,5.71-4.62,3.57c-1.6-2.14,3.58-3.44,4.62-3.57C62.74,33.54,53.02,48.09,51.9,64.88
			c-4.95,28.06-5.95,57.06-5.42,84.61c-0.78-0.62,0.22-10.41,0,0c-0.78-0.62-4.26-4.41-2.28-5.57c2.03-1.19,2.28,4.85,2.28,5.57
			c-5.94-4.84-6.98-13-7.42-20.16c-0.63-10.08-0.88-20.21-0.69-30.31c0.34-18.37,3.17-36.89,11.09-53.62
			c4.56-9.63,10.43-18.61,16.82-27.12c-22.65,26.94-27.51,63.63-26.9,97.66c0.21,11.98,1.06,23.93,1.9,35.88
			c-9.41-33.52-14.25-70.48-1.16-103.73c3.59-9.12,8.47-17.75,14.71-25.32C41.8,49.76,44.8,81.56,45.26,110.61
			c-0.31,9.33,0.69,18.33-2.31,27.33h-2c-1-1-2-3-2-5c0-33-1-66,1-99c0-3,3-6,5.25-8.82c-0.17,0.63-2.35,2.74,0,0
			c-0.17,0.63-2.06,7.53-3.42,6.09c-1.38-1.47,2.54-5.46,3.42-6.09c-1.72,6.61-5.35,12.13-7.74,18.43
			c-10.52,25.39-1.52,53.39-3.37,80c0.53-4.67,1.69-9.87,1.31-14.58c-1.4,4.37-1.51,10.03-1.31,14.58c3.16-27.94-5-57.43,6.31-84.22
			c2.98-7.06,7.3-13.61,13.12-18.65c-7.05,11.81-12.62,24.58-15.26,38.13c-2.88,14.79-2.8,30.35-3.43,45.37
			c-0.36,8.56-0.68,17.13-1.2,25.69"/>
		<g>
			<path class="st1" d="M44.13,21.4c2.48,16,1.13,32.27-1.08,48.22c-2.22,16.01-5.25,31.94-6.14,48.1
				c-0.52,9.36-0.26,18.75,1.22,28.03c0.3,1.91,3.16,1.08,2.89-0.8c-2.73-19.28,0.34-38.79,4.35-57.66
				c3.13-14.71,7.93-29.24,16.82-41.54c5.01-6.94,11.31-12.89,18.62-17.37c1.39-0.85,0.49-3.37-1.16-2.74
				c-2.93,1.11-5.95,2.04-8.67,3.63c-1.49,0.88-0.49,3.12,1.16,2.74c3.07-0.71,5.87-2.22,8.67-3.63c-0.5-0.86-1.01-1.73-1.51-2.59
				c-7.85,4.48-14.64,10.58-19.59,18.17c-4.63,7.1-7.51,15.24-9.16,23.53c-3.51,17.72-2.04,36.02-0.65,53.88
				c0.38,4.93,0.78,9.86,1.09,14.79c0.15,2.39,0.28,4.77,0.37,7.16c0.05,1.22,0.21,2.53-0.05,3.73c-0.31,1.4-0.67,2.53-0.36,3.98
				c0.91-0.39,1.83-0.77,2.74-1.16c0.17,0.31,0.11,0.05,0.09,0.3c0.01-0.16-0.03-0.35-0.04-0.51c-0.02-0.45-0.01-0.9,0-1.36
				c0.01-0.42,0.03-0.83,0.07-1.24c0.01-0.15,0.06-0.33,0.04-0.48c-0.01-0.1-0.03,0.15-0.02,0.15c0-0.02,0.01-0.04,0.01-0.06
				c0.08-0.37-0.14-0.1-0.66,0.8c-0.61-0.08-1.21-0.16-1.82-0.23c-0.05-0.05-0.56-0.82-0.41-0.91c-0.01,0.01,0.01,0.23,0.01,0.25
				c-0.01,0.26,0.01,0.54,0,0.8c-0.01,1.08-0.05,2.16-0.09,3.24c0.93-0.25,1.86-0.5,2.8-0.76c-0.84-1.25-1.63-2.54-2.38-3.85
				c-0.52-0.9-1.02-1.82-1.46-2.76c-0.18-0.38-0.34-0.76-0.47-1.16c-0.05-0.16-0.1-0.32-0.14-0.49c-0.08-0.3-0.06-0.22-0.04-0.22
				c0-0.06,0-0.11,0-0.17c0,0.14-0.03,0.28-0.1,0.4c-0.21,0.16-0.43,0.33-0.64,0.49c-0.11,0.04-0.21,0.04-0.3,0
				c0.04-0.08,0.31,0.18,0.44,0.33c0.62,0.74,0.95,1.8,1.23,2.71c0.55,1.78,0.98,3.71,1.08,5.49c0.93-0.25,1.86-0.5,2.8-0.76
				c-7.55-17.38-8.47-36.67-7.95-55.36c0.13-4.86,0.77-9.66,0.97-14.51c0.21-4.91,0.16-9.83,0.15-14.75
				c-0.01-9.69,0.15-19.51,2.89-28.89c2.55-8.73,10.24-14.84,18.93-16.89c-0.56-0.73-1.13-1.47-1.69-2.2
				c0.24-0.43,0.38-0.15,0.15-0.24c0.16,0.06,0.08-0.03-0.13,0.03c-0.38,0.11-0.77,0.21-1.16,0.28c-0.19,0.04-0.37,0.07-0.56,0.1
				c-0.31,0.05,0.11,0-0.25,0.03c-0.12,0.01-0.28,0-0.4,0.03c-0.36,0.11-0.52-0.42,0.42,0.18c0.25,0.43,0.5,0.86,0.74,1.3
				c0-0.01,0-0.01,0-0.02c-0.15,0.35-0.29,0.71-0.44,1.06c-0.18,0.22-0.71,0.28-0.26,0.22c0.24-0.03,0.49-0.13,0.73-0.19
				c0.94-0.23,1.9-0.41,2.85-0.59c-0.56-0.73-1.13-1.47-1.69-2.2c-0.33,0.78-0.79,1.55-1.29,2.23c-0.25,0.34-0.74,0.67-0.94,1.02
				c-0.21,0.38,0,0.02,0.08,0.14c0.24,0.37-0.3,0.36,0.25,0.07c0.4-0.21,0.78-0.44,1.2-0.6c0.76-0.3,1.59-0.53,2.4-0.65
				c-0.62-0.62-1.23-1.23-1.85-1.85c-5.52,15.3-14.81,29.44-16.35,45.96c-0.43,4.61-1.43,9.19-2.05,13.79
				c-0.61,4.53-1.14,9.07-1.58,13.62c-0.89,9.2-1.44,18.43-1.75,27.67c-0.33,10.27-0.35,20.55-0.16,30.82
				c0.85-0.35,1.71-0.71,2.56-1.06c0.12,0.12,0.15,0.33,0.26,0.44c-0.02-0.02-0.07-0.2-0.06-0.23c0.07-0.23,0,0.08-0.03-0.23
				c-0.03-0.48-0.04-0.95-0.03-1.43c0.01-0.44,0.03-0.88,0.06-1.31c0.01-0.15,0.06-0.33,0.05-0.48c0.04,0.51-0.07,0.15-0.01,0.1
				c0-0.02,0.01-0.04,0.01-0.06c0.06-0.25-0.05-0.06-0.34,0.55c-0.49,0.13-0.97,0.26-1.46,0.39c0,0,0.01,0,0.01,0
				c-0.3-0.23-0.6-0.46-0.9-0.69c-0.13-0.19-0.11-0.62-0.14-0.33c-0.02,0.29,0.03,0.61,0.03,0.9c0.02,1.14,0,2.29-0.03,3.43
				c0.85-0.35,1.71-0.71,2.56-1.06c-0.72-0.61-1.36-1.37-1.87-2.17c-0.09-0.15-0.47-1.15-0.57-1.22c0.06,0.04-0.99,0.47-0.87,0.07
				c0.01-0.03,0.24,0.55,0.29,0.74c0.15,0.51,0.25,1.04,0.31,1.57c0.09,0.68,0.14,1.38,0.14,2.07c0.85-0.35,1.71-0.71,2.56-1.06
				c-5.88-4.91-6.62-12.95-7.04-20.1c-0.59-9.91-0.83-19.84-0.62-29.77c0.38-18.23,3.28-36.69,11.27-53.23
				C55.65,36,61.37,27.32,67.57,19.04c1.01-1.35-1.26-3.12-2.36-1.82C53.95,30.67,46.74,46.88,42.7,63.86
				c-4.03,16.95-5.13,34.51-4.83,51.89c0.21,12.04,1.06,24.06,1.9,36.08c0.98-0.13,1.96-0.27,2.95-0.4
				c-4.69-16.75-8.19-33.93-8.96-51.34c-0.76-17.36,1.31-34.9,7.63-51.16c3.51-9.02,8.35-17.59,14.49-25.08
				c-0.79-0.61-1.57-1.21-2.36-1.82c-6.48,13.52-9.14,28.37-10,43.24c-0.87,14.98,0.12,29.94,0.23,44.92
				c0.03,4.57,0.02,9.18-0.12,13.75c-0.14,4.63-0.69,9.19-2.13,13.6c0.48-0.37,0.96-0.73,1.45-1.1c-0.67,0-1.33,0-2,0
				c0.35,0.15,0.71,0.29,1.06,0.44c-1-1.07-1.5-2.5-1.56-3.94c-0.08-1.98,0-3.99-0.01-5.97c-0.01-3.81-0.03-7.63-0.06-11.44
				c-0.05-7.46-0.12-14.92-0.15-22.39c-0.07-15.09-0.02-30.19,0.55-45.27c0.16-4.15,0.35-8.29,0.59-12.44
				c0.11-1.93,0.35-3.24,1.43-4.87c1.03-1.55,2.3-2.93,3.47-4.38c-0.84-0.49-1.67-0.97-2.51-1.46c0.11-0.3-0.15,0.15-0.23,0.25
				c-0.38,0.45-0.7,0.4,0.2,0.08c0.62,0.62,1.23,1.23,1.85,1.85c-0.07,0.48-0.18,0.28-0.03,0.16c0.27-0.22,0.5-0.6,0.73-0.87
				c-0.84-0.49-1.67-0.97-2.51-1.46c-0.24,0.86-0.5,1.71-0.79,2.55c-0.17,0.49-0.35,0.98-0.56,1.46c-0.13,0.28-0.69,1.14-0.68,1.25
				c-0.14,0.13-0.14,0.14-0.01,0.03c0.39-0.18,0.76-0.14,1.12,0.13c0.55,0.14-0.19,0.47,0.18,0.08c0.3-0.33,0.48-1.01,0.76-1.4
				c0.39-0.55,0.83-1.06,1.3-1.55c0.2-0.21,0.41-0.42,0.62-0.62c0.05-0.05,0.57-0.48,0.25-0.24c-0.73-0.56-1.47-1.13-2.2-1.69
				c-1.68,6.27-5.14,11.81-7.5,17.81c-2.45,6.21-4.08,12.52-4.85,19.16c-1.52,13.12-0.01,26.33,0.87,39.44
				c0.51,7.46,0.82,14.94,0.32,22.41c-0.13,1.96,2.78,1.87,3,0c0.57-4.85,1.66-9.68,1.31-14.58c-0.12-1.66-2.43-2.07-2.95-0.4
				c-1.48,4.81-1.57,9.99-1.37,14.98c0.08,1.97,2.79,1.89,3,0c3.08-27.76-5.1-57.28,6.27-83.84c2.92-6.82,7.12-13.06,12.72-17.96
				c-0.79-0.61-1.57-1.21-2.36-1.82c-7.17,12.06-12.87,25.13-15.5,38.96c-2.81,14.77-2.77,29.86-3.37,44.83
				c-0.35,8.72-0.7,17.45-1.22,26.16c-0.12,1.93,2.88,1.92,3,0c0.91-15.1,1.22-30.22,1.91-45.33c0.34-7.37,0.87-14.76,2.07-22.05
				c1.14-6.86,2.96-13.57,5.42-20.08c2.76-7.3,6.3-14.28,10.28-20.98c0.9-1.52-1.11-2.91-2.36-1.82
				C41.9,28.88,36.32,42.55,34.12,56.17C31.84,70.35,32.84,84.72,33.25,99c0.23,8.19,0.26,16.4-0.64,24.55c1,0,2,0,3,0
				c-0.2-4.73-0.15-9.62,1.26-14.18c-0.98-0.13-1.96-0.27-2.95-0.4c0.34,4.9-0.75,9.74-1.31,14.58c1,0,2,0,3,0
				c1.74-25.9-6.89-53.04,2.72-78.12c2.57-6.71,6.46-12.94,8.33-19.91c0.31-1.15-1.11-2.52-2.2-1.69c-1.45,1.1-2.78,2.58-3.68,4.16
				c-0.86,1.51-1.33,4.24,0.91,4.85c3.1,0.85,4.42-5.31,4.97-7.32c0.38-1.37-1.5-2.64-2.51-1.46c-0.44,0.51-1.37,1.3-1.47,2.03
				c-0.14,1.01,0.64,2.28,1.85,1.85c0.97-0.35,1.78-1.48,2.13-2.42c0.51-1.37-1.58-2.61-2.51-1.46c-2.07,2.56-4.92,5.24-5.55,8.61
				c-0.35,1.86-0.29,3.85-0.39,5.74c-0.11,2.07-0.21,4.15-0.29,6.22c-0.36,8.45-0.55,16.91-0.64,25.37
				c-0.18,16.75,0.05,33.5,0.14,50.25c0.01,2.4,0.03,4.81,0.03,7.21c0.01,2.2-0.21,4.54,0.12,6.73c0.25,1.66,1.07,3.89,2.48,4.92
				c0.75,0.55,2.02,0.32,2.91,0.32c0.68,0,1.24-0.47,1.45-1.1c2.5-7.68,2.26-15.74,2.29-23.71c0.03-7.55-0.21-15.08-0.39-22.62
				c-0.35-14.85-0.43-29.88,2.26-44.54c1.51-8.25,3.91-16.35,7.55-23.92c0.68-1.42-1.2-3.23-2.36-1.82
				C42.5,35.45,35.56,52.28,32.55,69.7c-3.04,17.57-2.24,35.55,0.63,53.08c1.62,9.94,3.93,19.75,6.64,29.44
				c0.44,1.58,3.07,1.33,2.95-0.4c-1.35-19.3-2.7-38.66-1.41-58c1.13-16.97,4.19-34.08,10.95-49.77
				c3.83-8.89,8.82-17.28,15.03-24.71c-0.79-0.61-1.57-1.21-2.36-1.82c-5.66,7.55-10.91,15.43-15.21,23.84
				c-4.29,8.39-7.43,17.29-9.46,26.49c-4.22,19.13-3.99,39.04-2.93,58.5c0.47,8.49,0.99,18.32,8.04,24.2
				c0.96,0.8,2.57,0.33,2.56-1.06c-0.02-2.19-0.27-7.55-3.54-7.19c-2.06,0.22-2.69,2.4-2.05,4.1c0.59,1.55,1.76,3.08,3.03,4.15
				c0.98,0.82,2.53,0.31,2.56-1.06c0.03-1.55,0.35-3.56-0.1-5.09c-0.5-1.7-2.65-1.37-3.01,0.2c-0.22,0.94-0.2,2-0.19,2.96
				c0.01,0.99,0,2.23,0.74,2.99c0.9,0.92,2.59,0.24,2.56-1.06c-0.34-18.22-0.02-36.47,1.55-54.64c0.8-9.18,1.91-18.34,3.45-27.43
				c0.69-4.09,0.99-8.18,2.03-12.22c1-3.91,2.36-7.72,3.88-11.46c3.46-8.51,7.73-16.67,10.85-25.31c0.43-1.2-0.83-1.99-1.85-1.85
				c-2.51,0.36-7.76,2.39-5.52,5.77c2.46,3.71,6.22-1.22,7.21-3.57c0.52-1.22-0.33-2.47-1.69-2.2c-1.3,0.25-3.12,0.34-4.29,1.06
				c-1.47,0.9-0.65,2.85,0.92,2.88c1.44,0.03,4.28-0.33,5.07-1.73c0.65-1.17-0.42-2.5-1.69-2.2c-7.84,1.85-15.28,6.9-19.11,14.1
				c-2.22,4.18-3.14,9.13-3.81,13.77c-0.73,5.04-0.99,10.12-1.07,15.21c-0.07,5.07,0.02,10.13-0.04,15.2
				c-0.03,2.58-0.11,5.15-0.27,7.73c-0.15,2.49-0.55,4.97-0.69,7.45c-0.55,9.78-0.46,19.73,0.45,29.48
				c1.03,10.96,3.36,21.75,7.76,31.88c0.6,1.37,2.88,0.67,2.8-0.76c-0.11-1.89-0.5-3.82-1-5.64c-0.52-1.89-1.29-4.36-3.09-5.42
				c-1.72-1.01-3.72-0.05-3.59,2.01c0.11,1.85,1.27,3.74,2.15,5.32c0.85,1.53,1.76,3.04,2.74,4.49c0.83,1.23,2.74,0.78,2.8-0.76
				c0.05-1.25,0.11-2.5,0.09-3.75c-0.01-0.65-0.03-1.24-0.49-1.76c-0.39-0.44-1.32-0.62-1.82-0.23c-0.97,0.74-0.88,2.05-0.92,3.17
				c-0.04,1.05-0.18,2.37,0.34,3.33c0.84,1.54,3.09,0.46,2.74-1.16c-0.22-1.03,0.33-2.09,0.49-3.1c0.18-1.16,0.08-2.35,0.04-3.52
				c-0.08-2.08-0.18-4.16-0.3-6.24c-0.25-4.23-0.57-8.45-0.9-12.68c-0.69-8.88-1.42-17.77-1.66-26.68
				c-0.45-16.72,0.56-34.6,8.95-49.51c4.8-8.52,11.88-15.3,20.35-20.13c1.69-0.96,0.2-3.46-1.51-2.59c-2.57,1.3-5.12,2.68-7.95,3.33
				c0.39,0.91,0.77,1.83,1.16,2.74c2.5-1.46,5.26-2.31,7.95-3.33c-0.39-0.91-0.77-1.83-1.16-2.74c-13.5,8.28-23.1,21.17-29.22,35.61
				c-3.02,7.14-5.28,14.57-6.96,22.13c-2.11,9.44-3.91,18.98-5.04,28.59c-1.31,11.18-1.53,22.46,0.05,33.62
				c0.96-0.27,1.93-0.53,2.89-0.8c-2.59-16.3-1.11-32.93,1.17-49.18c2.24-16,5.25-31.93,6.07-48.09c0.46-9.05,0.15-18.12-1.24-27.08
				C46.73,18.7,43.84,19.51,44.13,21.4L44.13,21.4z"/>
		</g>
	</g>
	<g>
		<path class="st1" d="M42.94,112.11c-1.02,12.24-1.29,24.55-0.82,36.83c-4.7-41.52-2.12-83.86,7.59-124.5
			c-0.85,9.02-3.42,17.88-7.51,25.96c-0.11-7.3-0.22-14.6-0.33-21.9c-6.8,3.46-7.9,12.57-7.87,20.19
			c0.22,47.46,11.03,94.84,31.43,137.7"/>
		<g>
			<path class="st1" d="M41.44,112.11c-1.01,12.25-1.28,24.55-0.82,36.83c1,0,2,0,3,0c-1.82-16.15-2.56-32.42-2.19-48.67
				c0.36-16.19,1.81-32.36,4.35-48.36c1.45-9.09,3.25-18.13,5.38-27.08c-0.98-0.13-1.96-0.27-2.95-0.4
				c-0.86,8.76-3.35,17.33-7.31,25.2c0.93,0.25,1.86,0.5,2.8,0.76c-0.11-7.3-0.22-14.6-0.33-21.9c-0.02-1.17-1.25-1.83-2.26-1.3
				c-7.94,4.19-8.67,14.47-8.61,22.4c0.09,11.48,0.79,22.96,2.1,34.36c2.63,22.87,7.64,45.46,15,67.28
				c4.13,12.24,8.99,24.22,14.53,35.89c0.83,1.74,3.42,0.22,2.59-1.51c-9.6-20.21-17.07-41.42-22.29-63.18
				c-5.19-21.61-8.16-43.73-8.8-65.95c-0.15-5.27-0.49-10.72,0.44-15.94c0.77-4.31,2.49-8.62,6.55-10.76
				c-0.75-0.43-1.5-0.86-2.26-1.3c0.11,7.3,0.22,14.6,0.33,21.9c0.02,1.42,2.1,2.14,2.8,0.76c4.21-8.37,6.8-17.39,7.72-26.72
				c0.17-1.69-2.56-2.02-2.95-0.4c-3.78,15.86-6.49,31.97-8.12,48.2c-1.64,16.33-2.17,32.77-1.58,49.17
				c0.33,9.2,1.02,18.39,2.05,27.54c0.21,1.87,3.07,1.97,3,0c-0.46-12.28-0.18-24.58,0.82-36.83
				C44.6,110.19,41.6,110.2,41.44,112.11L41.44,112.11z"/>
		</g>
	</g>
	<g>
		<path class="st1" d="M176.34,353.95c0.53-10.37-0.02-20.8-1.64-31.07c1.08,8.26,0.22,16.77-2.49,24.65
			c-4.48-9.6-6.6-20.3-6.12-30.89"/>
		<g>
			<path class="st1" d="M177.84,353.95c0.52-10.52-0.07-21.06-1.7-31.46c-0.26-1.65-3.16-1.28-2.95,0.4
				c1.04,8.19,0.22,16.44-2.44,24.25c0.91-0.12,1.83-0.24,2.74-0.36c-4.35-9.41-6.35-19.78-5.91-30.13c0.08-1.93-2.92-1.93-3,0
				c-0.46,10.9,1.75,21.75,6.32,31.64c0.58,1.26,2.36,0.75,2.74-0.36c2.73-8.03,3.61-16.63,2.55-25.05
				c-0.98,0.13-1.96,0.27-2.95,0.4c1.59,10.14,2.1,20.42,1.59,30.67C174.75,355.88,177.75,355.88,177.84,353.95L177.84,353.95z"/>
		</g>
	</g>
	<g>
		<path class="st1" d="M165.95,310.67c-0.01,12.07-0.02,24.14-0.02,36.21c0,2.57,1.15,6.14,3.65,5.57
			c0.97-8.4,1.24-16.89,0.81-25.34c-0.07,7.82-0.14,15.64-0.21,23.47c1.07-13.64,2.15-27.28,3.22-40.93
			c-0.01,13.51-0.01,27.03-0.02,40.54c0.84-10.4,0.15-20.92-2.03-31.12c-0.63,10.62-2.39,21.18-5.24,31.43
			c-0.1-9.51-0.21-19.02-0.31-28.53c0.85,10.07,0.43,20.24-1.23,30.21c-1.05-7.68-2.09-15.35-3.14-23.03
			c0.01,5.23,0.02,10.47,0.03,15.7c0-10.89,0-21.79,0-32.68"/>
		<g>
			<path class="st1" d="M164.45,310.67c-0.01,8.85-0.01,17.69-0.02,26.54c0,2.23,0,4.46,0,6.7c0,1.73-0.1,3.47,0.22,5.18
				c0.51,2.72,2.25,5.34,5.33,4.81c0.7-0.12,1.03-0.83,1.1-1.45c0.96-8.41,1.23-16.88,0.81-25.34c-0.1-1.92-2.98-1.94-3,0
				c-0.07,7.82-0.14,15.64-0.21,23.47c-0.02,1.95,2.85,1.9,3,0c1.07-13.64,2.15-27.28,3.22-40.93c-1,0-2,0-3,0
				c-0.01,13.51-0.01,27.03-0.02,40.54c0,1.95,2.85,1.9,3,0c0.83-10.55,0.11-21.17-2.08-31.52c-0.37-1.73-2.85-1.22-2.95,0.4
				c-0.64,10.5-2.38,20.89-5.19,31.03c0.98,0.13,1.96,0.27,2.95,0.4c-0.1-9.51-0.21-19.02-0.31-28.53c-1,0-2,0-3,0
				c0.81,9.95,0.44,19.97-1.18,29.81c0.96,0,1.93,0,2.89,0c-1.05-7.68-2.09-15.35-3.14-23.03c-0.23-1.7-2.95-1.25-2.95,0.4
				c0.01,5.23,0.02,10.47,0.03,15.7c0,1.93,3,1.93,3,0c0-10.89,0-21.79,0-32.68c0-1.93-3-1.93-3,0c0,10.89,0,21.79,0,32.68
				c1,0,2,0,3,0c-0.01-5.23-0.02-10.47-0.03-15.7c-0.98,0.13-1.96,0.27-2.95,0.4c1.05,7.68,2.09,15.35,3.14,23.03
				c0.2,1.45,2.66,1.42,2.89,0c1.67-10.12,2.12-20.39,1.29-30.61c-0.16-1.9-3.02-1.96-3,0c0.1,9.51,0.21,19.02,0.31,28.53
				c0.02,1.68,2.49,2.05,2.95,0.4c2.87-10.39,4.64-21.06,5.29-31.83c-0.98,0.13-1.96,0.27-2.95,0.4c2.13,10.1,2.78,20.44,1.97,30.73
				c1,0,2,0,3,0c0.01-13.51,0.01-27.03,0.02-40.54c0-1.95-2.85-1.9-3,0c-1.07,13.64-2.15,27.28-3.22,40.93c1,0,2,0,3,0
				c0.07-7.82,0.14-15.64,0.21-23.47c-1,0-2,0-3,0c0.42,8.46,0.15,16.93-0.81,25.34c0.37-0.48,0.73-0.96,1.1-1.45
				c-0.81,0.14-1.25-1.24-1.42-1.8c-0.37-1.26-0.34-2.51-0.34-3.8c0-3.89,0-7.77,0.01-11.66c0-7.69,0.01-15.38,0.01-23.07
				C167.45,308.74,164.45,308.74,164.45,310.67L164.45,310.67z"/>
		</g>
	</g>
</g>
<g>
	<path class="st1" d="M331.18,126.58"/>
	<g>
		<path class="st1" d="M331.18,132.58c7.72,0,7.73-12,0-12C323.46,120.58,323.44,132.58,331.18,132.58L331.18,132.58z"/>
	</g>
</g>
<g>
	<path class="st1" d="M46.48,24.88c-3.53,6.4-5.7,13.55-6.32,20.83c-0.24-9.1,0.65-18.23,2.62-27.12
		c-2.17,8.96-3.95,18.02-5.32,27.14c0.01-8.45,0.79-16.89,2.31-25.2c-1.64,10.29-2.62,20.69-2.93,31.11
		c-0.11-14.1,2.52-28.21,7.7-41.32c-4.42,8.62-6.75,18.29-6.75,27.97c-0.02-7.11,0.86-14.22,2.59-21.12
		c1.07-4.25,3.29-9.15,7.64-9.69c-5.49,5-8.44,12.29-9.56,19.63s-0.56,14.81,0.01,22.21c-0.48-8.77,0.11-17.6,1.75-26.22
		c-3.9,11.82-5.37,24.43-4.27,36.83c-0.42-9.85,0.41-19.75,2.47-29.39c-3,28.61-2.44,57.59,1.66,86.06
		c-1.34-11.16-1.24-22.48,0.28-33.62c-5.04,2.34-5.38,9.27-4.89,14.81c1.55,17.48,3.77,34.9,6.67,52.21
		c-4.45-13.02-2.98-27.23-1.45-40.9c-3.28,17.25-2.83,35.2,1.32,52.26c-2.56-20.18-3.31-40.58-2.23-60.89
		c4.09,26.91-2.09,55.8,8.97,80.67c-5.51-23.51-11.04-47.88-6.44-71.58c-3.9,18.41-3.72,37.67,0.54,56
		c-5.7-19.82-7.68-40.71-5.8-61.25c3.74,19.22-3.15,40.8,6.64,57.76C37.49,127.01,38.27,90.75,46,56.02
		c-1.54,21.78-2.76,43.58-3.65,65.4c-0.88-3.73-1.2-7.6-0.94-11.43"/>
	<g>
		<path class="st1" d="M41.3,21.85c-4.01,7.55-6.28,15.36-7.14,23.86c4,0,8,0,12,0c-0.15-8.63,0.6-17.08,2.41-25.53
			c1.6-7.51-9.76-10.74-11.57-3.19c-2.15,8.97-3.92,18.01-5.32,27.14c3.93,0.53,7.86,1.06,11.79,1.6c0.07-7.94,0.72-15.78,2.1-23.6
			c-3.86-1.06-7.71-2.13-11.57-3.19c-1.69,10.84-2.78,21.73-3.15,32.7c4,0,8,0,12,0c0.01-13.71,2.56-26.94,7.49-39.73
			c2.44-6.32-7.97-10.7-10.97-4.62c-4.83,9.77-7.41,20.1-7.57,31c4,0,8,0,12,0c0.05-5.3,0.46-10.54,1.52-15.74
			c0.54-2.67,1.07-8.53,4.3-9.28c-1.95-3.34-3.89-6.69-5.84-10.03c-12.56,12.2-12.54,29.81-11.31,46.08c0.57,7.62,12.36,7.78,12,0
			c-0.38-8.28,0.06-16.47,1.53-24.63c1.36-7.52-9.19-10.65-11.57-3.19c-3.96,12.42-5.5,25.43-4.48,38.42c0.59,7.6,12.27,7.8,12,0
			c-0.33-9.38,0.37-18.6,2.26-27.79c-3.93-0.53-7.86-1.06-11.79-1.6c-2.98,29.25-2.23,58.56,1.87,87.65
			c0.93,6.62,12.54,5.13,11.79-1.6c-1.27-11.22-1.17-22.42,0.28-33.62c0.61-4.71-5.48-7.21-9.03-5.18
			c-10.81,6.19-7.9,20.43-6.83,30.66c1.51,14.43,3.48,28.81,5.86,43.13c3.86-1.06,7.71-2.13,11.57-3.19
			c-4.11-12.81-2.69-26.16-1.23-39.31c0.74-6.67-10.57-8.24-11.79-1.6c-3.37,18.5-2.99,37.14,1.32,55.45
			c1.51,6.43,12.63,5.22,11.79-1.6c-2.51-20.21-3.25-40.55-2.23-60.89c-3.93,0.53-7.86,1.06-11.79,1.6
			c3.97,27.58-1.73,55.73,9.58,82.1c2.77,6.46,12.45,1.71,10.97-4.62c-5.22-22.3-10.63-45.45-6.44-68.39
			c1.37-7.52-10.02-10.8-11.57-3.19c-4.02,19.65-3.86,39.61,0.54,59.19c3.86-1.06,7.71-2.13,11.57-3.19
			c-5.48-19.48-7.31-39.49-5.58-59.65c-3.93,0.53-7.86,1.06-11.79,1.6c3.56,19.9-2.95,40.53,7.25,59.19
			c3.46,6.33,12.07,1.73,10.97-4.62c-5.92-34.06-5.1-69.07,2.29-102.83c-3.93-0.53-7.86-1.06-11.79-1.6
			c-1.53,21.78-2.75,43.58-3.65,65.4c3.93-0.53,7.86-1.06,11.79-1.6c-0.7-3.3-0.87-6.47-0.72-9.83c0.34-7.72-11.66-7.71-12,0
			c-0.19,4.43,0.24,8.69,1.15,13.02c1.44,6.85,11.52,4.94,11.79-1.6c0.9-21.82,2.12-43.62,3.65-65.4c0.47-6.72-10.34-8.19-11.79-1.6
			c-7.87,35.98-8.6,72.93-2.29,109.21c3.66-1.54,7.31-3.08,10.97-4.62c-4.63-8.48-4.87-18.05-4.75-27.49
			c0.12-9.69,0.43-19.25-1.29-28.84c-1.27-7.09-11.25-4.69-11.79,1.6c-1.81,21.14,0.26,42.42,6.01,62.84
			c2.1,7.46,13.26,4.33,11.57-3.19c-3.91-17.4-4.11-35.33-0.54-52.81c-3.86-1.06-7.71-2.13-11.57-3.19
			c-4.61,25.23,0.69,50.19,6.44,74.77c3.66-1.54,7.31-3.08,10.97-4.62c-10.58-24.66-4.64-53.28-8.37-79.23
			c-1-6.98-11.46-4.81-11.79,1.6c-1.02,20.34-0.28,40.68,2.23,60.89c3.93-0.53,7.86-1.06,11.79-1.6
			c-3.79-16.12-4.3-32.77-1.32-49.07c-3.93-0.53-7.86-1.06-11.79-1.6c-1.58,14.22-2.79,28.64,1.66,42.5
			c2.4,7.48,12.82,4.33,11.57-3.19c-1.88-11.33-3.5-22.71-4.8-34.12c-0.62-5.48-1.26-10.98-1.66-16.49
			c-0.21-2.87-1.02-7.94,1.91-9.63c-3.01-1.73-6.02-3.45-9.03-5.18c-1.45,11.19-1.55,22.4-0.28,33.62c3.93-0.53,7.86-1.06,11.79-1.6
			c-3.95-27.97-4.31-56.37-1.45-84.46c0.68-6.71-10.43-8.19-11.79-1.6c-2.1,10.21-3.05,20.56-2.69,30.98c4,0,8,0,12,0
			C41,47.87,42.33,36.18,46,24.68c-3.86-1.06-7.71-2.13-11.57-3.19c-1.67,9.22-2.39,18.45-1.96,27.82c4,0,8,0,12,0
			c-0.97-12.84-2.28-27.8,7.8-37.59C56.7,7.4,52.1,0.36,46.43,1.69C32.31,4.98,31.9,26.97,31.8,38.28c-0.07,7.73,11.89,7.73,12,0
			c0.13-8.74,2.05-17.09,5.93-24.95c-3.66-1.54-7.31-3.08-10.97-4.62c-5.29,13.71-7.91,28.22-7.92,42.92c0,7.74,11.74,7.71,12,0
			c0.33-9.89,1.2-19.73,2.72-29.51c1.17-7.51-10.22-10.85-11.57-3.19c-1.56,8.87-2.45,17.78-2.52,26.79
			c-0.05,6.55,10.74,8.44,11.79,1.6c1.4-9.12,3.17-18.16,5.32-27.14c-3.86-1.06-7.71-2.13-11.57-3.19
			c-2.02,9.46-3.01,19.05-2.84,28.72c0.14,7.87,11.24,7.55,12,0c0.63-6.28,2.55-12.24,5.5-17.8C55.28,21.09,44.93,15.02,41.3,21.85
			L41.3,21.85z"/>
	</g>
</g>
<g>
	<path class="st1" d="M35.98,63.09c0.36,1.83,0.39,3.72,0.11,5.56c0.15-0.82,0.3-1.65,0.46-2.47"/>
	<g>
		<path class="st1" d="M30.19,64.69c0.26,1.44-0.05-1.36,0.02,0.11c0.02,0.36,0.05,0.71,0.05,1.07c0.01,0.36,0,0.72-0.01,1.07
			c-0.02,0.39-0.19,1.75,0.04,0.11c-0.24,1.67-0.28,3.11,0.6,4.62c0.73,1.24,2.16,2.43,3.59,2.76c2.94,0.67,6.77-0.89,7.38-4.19
			c0.15-0.82,0.3-1.65,0.46-2.47c0.3-1.61,0.25-3.16-0.6-4.62c-0.73-1.24-2.16-2.43-3.59-2.76c-2.94-0.67-6.77,0.89-7.38,4.19
			c-0.15,0.82-0.3,1.65-0.46,2.47c3.86,1.06,7.71,2.13,11.57,3.19c0.43-3.07,0.45-5.68-0.11-8.75c-0.56-3.1-4.49-5.13-7.38-4.19
			C31.06,58.38,29.59,61.37,30.19,64.69L30.19,64.69z"/>
	</g>
</g>
<g>
	<path class="st1" d="M40.34,69.29c-1.76,0.15-3.42,1.2-4.32,2.72c-0.09-0.56-0.18-1.12-0.27-1.67c-0.22-0.11-0.26,0.39-0.01,0.41
		c0.25,0.02,0.42-0.23,0.52-0.46c0.5-1.13,0.68-2.39,0.52-3.61c-0.34,1.96-0.68,3.91-1.02,5.87c0.11-1.89,0.36-3.77,0.75-5.61"/>
	<g>
		<path class="st1" d="M40.34,63.29c-1.99,0.24-3.78,0.58-5.51,1.67c-1.66,1.05-2.94,2.37-3.99,4.02c3.66,0.48,7.31,0.96,10.97,1.43
			c-0.09-0.56-0.18-1.12-0.27-1.67c-0.37-2.33-3.41-4.68-5.79-4.4c-0.04,0.01-0.09,0.01-0.13,0.02c-2.87,0.34-4.79,1.67-5.79,4.4
			c-0.95,2.62,0.46,5.7,2.74,7.09c2.42,1.47,5.6,1.05,7.62-0.91c2.05-1.98,2.86-5.49,2.57-8.26c-0.31-3-2.05-5.47-5.2-5.89
			c-2.71-0.36-6.07,1.35-6.58,4.3c-0.34,1.96-0.68,3.91-1.02,5.87c3.93,0.53,7.86,1.06,11.79,1.6C41.81,71.68,42,70.8,42,69.94
			c-0.03,0.24-0.06,0.49-0.09,0.73c0.04-0.29,0.09-0.57,0.14-0.86c0.08-0.43,0.16-0.86,0.25-1.28c0.64-3.06-0.89-6.63-4.19-7.38
			c-3-0.68-6.7,0.9-7.38,4.19c-0.49,2.37-0.82,4.79-0.97,7.21c-0.18,2.98,2.43,5.52,5.2,5.89c2.71,0.36,6.07-1.35,6.58-4.3
			c0.34-1.96,0.68-3.91,1.02-5.87c-3.93-0.53-7.86-1.06-11.79-1.6c0.04,0.27,0.06,0.54,0.06,0.82c-0.03,0.67,0.01,0.55,0.11-0.37
			c-0.05,0.27-0.11,0.54-0.19,0.8c-0.39,1.06-0.07,0.57,0.96-1.48c0.88-0.51,1.77-1.03,2.65-1.54c-0.07,0.02-0.15,0.04-0.22,0.06
			c1.54,0.2,3.08,0.4,4.62,0.6c-0.04-0.03-0.09-0.06-0.13-0.09c0.92,1.2,1.84,2.39,2.76,3.59c-0.01-0.06-0.02-0.11-0.04-0.17
			c0,1.06,0,2.13,0,3.19c0.02-0.05,0.03-0.09,0.05-0.14c-1.93,1.47-3.86,2.94-5.79,4.4c0.04-0.01,0.09-0.01,0.13-0.02
			c-1.93-1.47-3.86-2.94-5.79-4.4c0.09,0.56,0.18,1.12,0.27,1.67c0.37,2.3,2.89,4.02,4.99,4.3c2.42,0.33,4.67-0.81,5.98-2.86
			c0.68-1.08-0.89,1.08-0.07,0.11c0.64-0.76-0.82,0.45-0.24,0.17c0.1-0.07,0.2-0.13,0.3-0.18c0.41-0.21,0.2-0.13-0.63,0.24
			c0.11-0.04,0.22-0.07,0.34-0.11c0.64-0.15,0.45-0.14-0.56,0.02c1.65-0.2,3.02-0.54,4.24-1.76c1.04-1.04,1.82-2.75,1.76-4.24
			C46.21,66.35,43.68,62.89,40.34,63.29L40.34,63.29z"/>
	</g>
</g>
<g>
	<path class="st1" d="M409.49,260.87c2.49-3.74,7.2-11.42,4.68-16.03c-2.06,1.31-2.89,5.75-3.7,7.95
		c-1.74,4.72-4.44,9.52-5.54,14.41C406.39,265.22,408.01,263.1,409.49,260.87z"/>
	<g>
		<path class="st1" d="M414.67,263.9c4.39-6.66,8.09-14.25,4.68-22.09c-1.67-3.83-6.82-3.43-9.42-1.21
			c-3.04,2.59-3.87,6.58-5.1,10.19c-1.72,5.02-4.35,9.64-5.67,14.81c-1.78,6.95,7.07,9.89,10.97,4.62
			C411.66,268.13,413.21,266.05,414.67,263.9c4.37-6.39-6.02-12.4-10.36-6.06c-1.47,2.15-3.01,4.23-4.56,6.32
			c3.66,1.54,7.31,3.08,10.97,4.62c1.1-4.28,3.03-8.2,4.7-12.28c0.85-2.08,1.33-6.01,3-7.43c-3.14-0.4-6.28-0.81-9.42-1.21
			c0.89,2.03-3.36,7.98-4.68,9.98C400.05,264.31,410.44,270.33,414.67,263.9z"/>
	</g>
</g>
<g>
	<path class="st1" d="M406.35,273.02c0,0.96,0,1.92,0,2.88"/>
	<g>
		<path class="st1" d="M404.43,273.02c0,0.96,0,1.92,0,2.88c0,0.49,0.21,1.01,0.56,1.36c0.33,0.33,0.88,0.58,1.36,0.56
			c0.5-0.02,1.01-0.19,1.36-0.56c0.34-0.38,0.56-0.84,0.56-1.36c0-0.96,0-1.92,0-2.88c0-0.49-0.21-1.01-0.56-1.36
			c-0.33-0.33-0.88-0.58-1.36-0.56c-0.5,0.02-1.01,0.19-1.36,0.56C404.65,272.04,404.43,272.51,404.43,273.02L404.43,273.02z"/>
	</g>
</g>
<g>
	<path class="st1" d="M407,273.96c-2.57,7.21-5.15,14.42-7.72,21.63"/>
	<g>
		<path class="st1" d="M405.15,273.45c-2.57,7.21-5.15,14.42-7.72,21.63c-0.35,0.98,0.39,2.1,1.34,2.36
			c1.06,0.29,2.01-0.36,2.36-1.34c2.57-7.21,5.15-14.42,7.72-21.63c0.35-0.98-0.39-2.1-1.34-2.36
			C406.45,271.82,405.5,272.47,405.15,273.45L405.15,273.45z"/>
	</g>
</g>
</svg>
